<?xml version="1.0" standalone="no"?>
<!DOCTYPE svg PUBLIC "-//W3C//DTD SVG 20010904//EN"
 "http://www.w3.org/TR/2001/REC-SVG-20010904/DTD/svg10.dtd">
<svg version="1.0" xmlns="http://www.w3.org/2000/svg"
 width="371.000000pt" height="371.000000pt" viewBox="0 0 371.000000 371.000000"
 preserveAspectRatio="xMidYMid meet">
<metadata>
Created by potrace 1.11, written by Peter Selinger 2001-2013
</metadata>
<g transform="translate(0.000000,371.000000) scale(0.100000,-0.100000)"
fill="#000000" stroke="none">
<path d="M1664 3554 l-147 -146 44 6 c84 13 412 14 482 2 37 -7 67 -11 67 -9
0 6 -288 293 -293 293 -3 0 -72 -66 -153 -146z"/>
<path d="M1615 3284 c-106 -14 -162 -26 -269 -60 -85 -26 -258 -108 -310 -147
-166 -120 -284 -228 -359 -327 -23 -30 -45 -57 -48 -60 -14 -11 -82 -126 -118
-198 -92 -185 -138 -387 -139 -610 -1 -117 2 -137 20 -170 165 -293 354 -480
598 -594 68 -31 200 -73 260 -83 25 -4 59 -9 75 -12 77 -14 297 -7 400 12 351
66 676 319 839 654 25 52 65 160 71 191 1 3 4 19 8 35 31 130 39 273 23 420
-12 115 -49 249 -98 355 -104 225 -322 444 -568 571 -62 33 -69 34 -180 35
-63 0 -155 -5 -205 -12z"/>
<path d="M2350 3191 c0 -5 27 -32 61 -60 33 -28 58 -51 54 -51 -4 0 -2 -7 5
-15 7 -8 17 -12 24 -8 6 3 8 3 4 -2 -4 -4 7 -24 24 -44 17 -19 53 -69 80 -111
26 -41 52 -81 58 -87 6 -7 10 -14 9 -15 -1 -2 13 -34 30 -72 17 -38 31 -74 31
-80 0 -7 5 -17 12 -24 7 -7 9 -12 6 -12 -4 0 2 -26 13 -57 11 -32 19 -59 19
-61 -2 -4 12 -95 17 -117 3 -11 6 -87 8 -170 1 -126 -2 -168 -22 -265 -13 -63
-26 -122 -27 -130 -7 -34 -85 -218 -106 -250 -33 -49 -67 -105 -70 -115 -2 -5
-8 -14 -15 -20 -6 -5 -34 -37 -61 -69 -41 -50 -76 -86 -158 -161 -6 -6 -36
-29 -66 -52 -30 -23 -63 -49 -72 -57 -10 -9 -20 -16 -23 -16 -3 0 -10 0 -16 0
-5 0 -7 -6 -3 -13 4 -6 4 -9 -1 -5 -4 4 -26 -4 -49 -17 -83 -48 -266 -113
-371 -130 -22 -4 -51 -9 -65 -11 -14 -2 -86 -6 -160 -8 -152 -4 -255 7 -382
40 -13 3 -30 7 -38 9 -35 6 -220 84 -252 107 -14 10 -31 18 -37 18 -6 0 -11 5
-11 10 0 6 -5 10 -12 10 -6 0 -26 11 -44 25 -18 14 -35 25 -37 25 -8 0 -55 41
-84 72 -14 15 -30 25 -36 21 -6 -3 -7 -1 -3 5 4 7 -3 17 -18 23 -14 7 -24 15
-22 18 1 3 -19 29 -46 56 l-48 50 17 -45 c9 -25 22 -48 28 -52 5 -4 6 -8 2 -8
-8 0 44 -100 91 -175 29 -46 75 -106 114 -150 16 -16 28 -34 28 -38 0 -5 4 -5
10 -2 5 3 10 0 10 -8 0 -15 51 -63 63 -59 4 1 6 -2 5 -6 -9 -27 299 -249 346
-250 5 0 12 -4 15 -10 9 -13 148 -67 233 -91 181 -49 355 -64 553 -47 80 7
217 33 255 49 14 6 28 10 32 9 4 -1 36 10 73 23 241 91 462 253 626 460 71 89
122 165 112 165 -4 0 -3 4 3 8 19 12 71 117 108 214 34 92 68 238 81 348 10
91 5 294 -9 375 -2 11 -7 38 -11 60 -23 127 -104 355 -127 355 -5 0 -7 4 -4 9
3 4 -8 29 -24 55 -17 26 -30 51 -30 56 0 5 -6 13 -13 17 -6 4 -18 20 -26 35
-8 15 -19 25 -24 21 -6 -3 -7 -1 -4 4 12 19 -180 225 -278 298 -22 17 -46 36
-53 43 -8 7 -18 10 -23 7 -5 -4 -9 -2 -9 3 0 10 -71 60 -92 64 -7 2 -15 6 -18
9 -5 6 -149 79 -157 79 -1 0 -3 -4 -3 -9z"/>
<path d="M505 2950 c-1 -115 0 -210 2 -210 1 0 17 21 34 48 45 65 250 269 328
326 l63 46 -214 0 -213 0 0 -210z"/>
<path d="M2761 3114 c66 -49 266 -244 309 -302 61 -83 56 -96 56 137 l0 211
-214 0 -214 0 63 -46z"/>
<path d="M3375 2138 c25 -124 23 -451 -2 -558 -4 -18 39 19 148 127 l153 152
-151 151 c-105 105 -151 144 -148 128z"/>
<path d="M138 2041 l-108 -107 0 -75 0 -75 116 -114 c101 -99 116 -110 111
-85 -24 119 -29 380 -10 485 6 36 9 68 5 71 -4 4 -55 -41 -114 -100z"/>
<path d="M3093 943 c-89 -121 -242 -269 -378 -368 -18 -13 4 -14 195 -15 l216
0 0 210 c0 116 -1 210 -2 210 -2 0 -16 -17 -31 -37z"/>
<path d="M509 964 c-1 -5 -2 -98 -3 -206 l-1 -198 215 0 c206 0 213 1 191 18
-104 79 -147 117 -224 195 -49 50 -101 107 -115 126 -40 53 -62 76 -63 65z"/>
<path d="M1638 192 c71 -70 140 -138 155 -151 l26 -24 152 152 c126 126 148
151 123 146 -118 -24 -404 -25 -557 -1 -24 4 -8 -16 101 -122z"/>
</g>
</svg>
